<svg xmlns="http://www.w3.org/2000/svg" viewBox="0 0 800 200" fill="none">
  <defs>
    <linearGradient id="dashBg" x1="0" y1="0" x2="800" y2="200" gradientUnits="userSpaceOnUse">
      <stop offset="0%" stop-color="#065A82" stop-opacity="0.03"/>
      <stop offset="100%" stop-color="#1C7293" stop-opacity="0.06"/>
    </linearGradient>
  </defs>
  <rect width="800" height="200" fill="url(#dashBg)"/>
  <g stroke="#065A82" stroke-width="0.5" opacity="0.08">
    <line x1="50" y1="40" x2="150" y2="80"/>
    <line x1="150" y1="80" x2="280" y2="50"/>
    <line x1="280" y1="50" x2="380" y2="110"/>
    <line x1="380" y1="110" x2="500" y2="70"/>
    <line x1="500" y1="70" x2="620" y2="130"/>
    <line x1="620" y1="130" x2="750" y2="60"/>
    <line x1="80" y1="140" x2="200" y2="170"/>
    <line x1="200" y1="170" x2="350" y2="140"/>
    <line x1="350" y1="140" x2="480" y2="180"/>
    <line x1="480" y1="180" x2="600" y2="150"/>
    <line x1="600" y1="150" x2="720" y2="170"/>
    <line x1="150" y1="80" x2="200" y2="170"/>
    <line x1="380" y1="110" x2="350" y2="140"/>
    <line x1="500" y1="70" x2="480" y2="180"/>
    <line x1="620" y1="130" x2="600" y2="150"/>
  </g>
  <g fill="#1C7293" opacity="0.1">
    <circle cx="50" cy="40" r="3"/>
    <circle cx="150" cy="80" r="4"/>
    <circle cx="280" cy="50" r="3"/>
    <circle cx="380" cy="110" r="4"/>
    <circle cx="500" cy="70" r="3"/>
    <circle cx="620" cy="130" r="4"/>
    <circle cx="750" cy="60" r="3"/>
    <circle cx="80" cy="140" r="3"/>
    <circle cx="200" cy="170" r="4"/>
    <circle cx="350" cy="140" r="3"/>
    <circle cx="480" cy="180" r="4"/>
    <circle cx="600" cy="150" r="3"/>
    <circle cx="720" cy="170" r="3"/>
  </g>
  <g fill="#02C39A" opacity="0.06">
    <circle cx="150" cy="80" r="20"/>
    <circle cx="500" cy="70" r="15"/>
    <circle cx="350" cy="140" r="18"/>
  </g>
</svg>
