<svg xmlns="http://www.w3.org/2000/svg" viewBox="0 0 48 48" fill="none">
  <defs>
    <linearGradient id="shieldGrad" x1="0" y1="0" x2="48" y2="48" gradientUnits="userSpaceOnUse">
      <stop offset="0%" stop-color="#065A82"/>
      <stop offset="50%" stop-color="#1C7293"/>
      <stop offset="100%" stop-color="#02C39A"/>
    </linearGradient>
    <linearGradient id="innerGrad" x1="12" y1="8" x2="36" y2="40" gradientUnits="userSpaceOnUse">
      <stop offset="0%" stop-color="#1C7293"/>
      <stop offset="100%" stop-color="#02C39A"/>
    </linearGradient>
  </defs>
  <path d="M24 2L6 10v12c0 11.1 7.7 21.5 18 24 10.3-2.5 18-12.9 18-24V10L24 2z" fill="url(#shieldGrad)"/>
  <path d="M24 6L10 12.5v9.5c0 9.2 6.4 17.8 14 19.8V6z" fill="#065A82" opacity="0.3"/>
  <path d="M17 16h3v4h6v-4h3l-1.5 18h-9L17 16z" fill="none"/>
  <text x="16.5" y="32" font-family="Arial, Helvetica, sans-serif" font-weight="800" font-size="22" fill="#FFFFFF" letter-spacing="-0.5">R</text>
  <path d="M15 36l4-3 3 2 4-5 4 3" stroke="#02C39A" stroke-width="2" stroke-linecap="round" stroke-linejoin="round" fill="none"/>
  <circle cx="37" cy="11" r="5" fill="#02C39A"/>
  <path d="M35 11l1.5 1.5L39 9.5" stroke="#FFFFFF" stroke-width="1.5" stroke-linecap="round" stroke-linejoin="round" fill="none"/>
</svg>
