<svg xmlns="http://www.w3.org/2000/svg" viewBox="0 0 200 48" fill="none">
  <defs>
    <linearGradient id="wShieldGrad" x1="0" y1="0" x2="48" y2="48" gradientUnits="userSpaceOnUse">
      <stop offset="0%" stop-color="#065A82"/>
      <stop offset="50%" stop-color="#1C7293"/>
      <stop offset="100%" stop-color="#02C39A"/>
    </linearGradient>
    <linearGradient id="wTextGrad" x1="56" y1="12" x2="190" y2="36" gradientUnits="userSpaceOnUse">
      <stop offset="0%" stop-color="#065A82"/>
      <stop offset="100%" stop-color="#1C7293"/>
    </linearGradient>
  </defs>
  <path d="M24 2L6 10v12c0 11.1 7.7 21.5 18 24 10.3-2.5 18-12.9 18-24V10L24 2z" fill="url(#wShieldGrad)"/>
  <path d="M24 6L10 12.5v9.5c0 9.2 6.4 17.8 14 19.8V6z" fill="#065A82" opacity="0.3"/>
  <text x="16.5" y="32" font-family="Arial, Helvetica, sans-serif" font-weight="800" font-size="22" fill="#FFFFFF" letter-spacing="-0.5">R</text>
  <path d="M15 36l4-3 3 2 4-5 4 3" stroke="#02C39A" stroke-width="2" stroke-linecap="round" stroke-linejoin="round" fill="none"/>
  <circle cx="37" cy="11" r="5" fill="#02C39A"/>
  <path d="M35 11l1.5 1.5L39 9.5" stroke="#FFFFFF" stroke-width="1.5" stroke-linecap="round" stroke-linejoin="round" fill="none"/>
  <text x="56" y="33" font-family="Arial, Helvetica, sans-serif" font-weight="700" font-size="24" fill="url(#wTextGrad)" letter-spacing="3">RECONIX</text>
  <text x="56" y="44" font-family="Arial, Helvetica, sans-serif" font-weight="400" font-size="7" fill="#1C7293" letter-spacing="1.5" opacity="0.7">IDENTITY RECONCILIATION</text>
</svg>
